PathFileType	4	(X/Y/Z)	..\data\2014019\dynamic\2014019_C4_05.trc
DataRate	CameraRate	NumFrames	NumMarkers	Units	OrigDataRate	OrigDataStartFrame	OrigNumFrames
100.000000	100.000000	4	52	mm	100.000000	43	172
Frame#	Time	L_IAS			L_IPS			R_IPS			R_IAS			L_FTC			L_FLE			L_FME			L_FAX			L_TTC			L_FAL			L_TAM			L_FCC			L_FM1			L_FM2			L_FM5			R_FTC			R_FLE			R_FME			R_FAX			R_TTC			R_FAL			R_TAM			R_FCC			R_FM1			R_FM2			R_FM5			CV7			TV10			SXS			SJN			L_SIA			L_SRS			L_SAA			L_SAE			L_HLE			L_HME			L_UOA			L_RSP			L_UHE			L_HM2			L_HM5			R_SIA			R_SRS			R_SAA			R_SAE			R_HLE			R_HME			R_UOA			R_RSP			R_UHE			R_HM2			R_HM5			
		X1	Y1	Z1	X2	Y2	Z2	X3	Y3	Z3	X4	Y4	Z4	X5	Y5	Z5	X6	Y6	Z6	X7	Y7	Z7	X8	Y8	Z8	X9	Y9	Z9	X10	Y10	Z10	X11	Y11	Z11	X12	Y12	Z12	X13	Y13	Z13	X14	Y14	Z14	X15	Y15	Z15	X16	Y16	Z16	X17	Y17	Z17	X18	Y18	Z18	X19	Y19	Z19	X20	Y20	Z20	X21	Y21	Z21	X22	Y22	Z22	X23	Y23	Z23	X24	Y24	Z24	X25	Y25	Z25	X26	Y26	Z26	X27	Y27	Z27	X28	Y28	Z28	X29	Y29	Z29	X30	Y30	Z30	X31	Y31	Z31	X32	Y32	Z32	X33	Y33	Z33	X34	Y34	Z34	X35	Y35	Z35	X36	Y36	Z36	X37	Y37	Z37	X38	Y38	Z38	X39	Y39	Z39	X40	Y40	Z40	X41	Y41	Z41	X42	Y42	Z42	X43	Y43	Z43	X44	Y44	Z44	X45	Y45	Z45	X46	Y46	Z46	X47	Y47	Z47	X48	Y48	Z48	X49	Y49	Z49	X50	Y50	Z50	X51	Y51	Z51	X52	Y52	Z52	

44	0.43	-721.7965698242189	934.3040771484377	90.97005462646477	-929.0491943359377	989.4799804687502	171.1888275146484	-932.3664550781252	970.673278808594	266.6548461914062	-725.8284301757814	930.7641601562502	324.3250122070312	-810.6417236328127	882.1854248046877	7.996885299682519	-842.4324951171877	463.8539428710939	73.56802368164054	-882.7041015625002	459.0825195312501	205.8327941894531	-875.1478271484377	409.4151000976564	69.03812408447256	-830.3469848632815	392.244110107422	126.2458801269531	-955.393249511719	67.97354888916017	123.0997085571288	-929.6644287109377	95.40486145019533	212.5667266845703	-1002.747375488281	27.35666084289551	165.742218017578	-821.2000732421877	23.36612701416016	223.2948455810546	-794.4780883789065	37.96887207031251	169.8057708740234	-829.1629028320315	20.20018577575684	109.0587768554687	-817.161315917969	837.1318969726565	409.330322265625	-626.3864746093751	478.3392333984376	347.9097290039062	-605.5615844726564	469.0616455078126	213.8513031005859	-647.3141479492189	422.457244873047	350.9939270019531	-574.8464965820314	410.2023315429689	308.8517456054688	-661.6281738281251	82.15140533447267	323.62939453125	-614.8935546875001	91.16847991943361	243.5564575195312	-686.3612060546876	32.39228820800782	260.6387329101562	-493.2080078125002	37.01305389404298	295.0035095214844	-504.7369689941408	55.76361083984376	348.943115234375	-556.2264404296876	37.02375411987305	384.8446044921876	-871.644958496094	1471.281127929688	207.6782836914062	-945.0906982421877	1258.656860351563	204.4874114990234	-721.8588256835939	1152.210327148438	217.6044769287109	-752.7879028320314	1380.369262695313	213.2191467285156	-943.7786254882815	1296.92822265625	119.3876266479491	-895.4236450195315	1420.57861328125	90.69981384277334	-854.2417602539065	1412.397827148438	28.80855178832998	-803.9966430664065	1427.476928710938	26.34284019470206	-762.3768310546876	1094.9443359375	-43.51107025146494	-792.812927246094	1083.415283203125	15.90104389190664	-779.7054443359377	1061.085571289063	-10.4886302947999	-561.8808593750001	932.1096191406252	-18.5339431762696	-609.7431640625001	909.754821777344	-67.77600097656259	-499.8865356445314	865.0189208984377	-23.41528129577643	-581.2067260742189	826.1062011718752	-66.13660430908212	-957.7755126953127	1290.15673828125	273.0201416015624	-912.2947998046877	1420.799072265625	308.8319702148437	-872.7922973632815	1420.010009765625	373.5272216796874	-833.742370605469	1432.63134765625	381.8971557617187	-904.532897949219	1109.533203125	451.0192565917969	-935.0617675781252	1107.237060546875	379.1630859374999	-941.1398925781252	1086.902954101563	417.332763671875	-821.1328735351565	865.9024047851565	445.9229736328125	-882.3103637695316	872.9121093750002	484.962158203125	-809.6151123046877	769.6023559570315	462.4341430664062	-908.0179443359378	791.8253173828127	474.3847045898438	
45	0.44	-710.7474365234376	932.2849731445315	90.5824890136718	-917.4157714843752	987.932067871094	172.467315673828	-919.9375000000002	968.9248046875002	267.7919616699218	-713.0526733398439	928.926208496094	324.0893554687499	-800.414001464844	880.9467773437502	8.109906196594142	-836.907409667969	462.8504333496095	73.57652282714835	-876.8220825195315	458.7356262207032	205.7634277343749	-870.1235961914065	408.9171447753907	69.00728607177726	-825.606384277344	391.0609436035157	126.1227645874023	-955.0388793945315	68.34639739990236	123.0666122436523	-929.3570556640627	95.47149658203126	212.5180053710937	-1002.597290039063	28.10713386535645	165.7517547607421	-821.2713012695315	23.40977096557618	223.3481140136718	-794.445739746094	37.87218093872071	169.7397155761718	-829.2229614257815	20.11610794067383	109.0101089477538	-804.5281982421877	835.430114746094	409.7090759277344	-614.5150146484376	475.9551391601564	348.2449035644531	-593.9686889648439	466.9430541992189	213.7658996582031	-632.4375610351564	419.197479248047	351.2665100097656	-559.4464111328126	410.5949096679689	308.8374938964844	-623.6165161132814	78.34359741210939	323.2951965332031	-577.8729248046876	90.1566619873047	243.1029815673828	-645.4587402343751	27.11091613769532	260.0320129394531	-453.055145263672	42.50382232666016	294.0162658691406	-465.4088439941408	60.82883834838869	348.017333984375	-515.4481811523439	39.42222213745118	384.0761108398438	-859.426696777344	1469.579223632813	207.5352783203124	-932.8323364257815	1257.006225585938	204.9007110595703	-709.4684448242189	1150.106811523438	217.2109680175781	-740.4041748046876	1378.541259765625	212.8560791015625	-931.6428222656252	1295.186889648438	119.4739227294921	-883.3987426757815	1418.864624023438	90.59971618652334	-842.230651855469	1410.6611328125	28.61751556396475	-792.0310668945315	1425.93017578125	26.24556922912589	-746.1666259765626	1093.858276367188	-43.31407165527354	-777.0255126953127	1081.87744140625	15.87400150299063	-763.0864868164064	1059.391357421875	-10.40238380432138	-540.9956054687501	937.5842895507815	-15.4101581573487	-587.5516967773439	913.1270141601565	-64.86458587646493	-476.6265258789064	872.8371582031252	-19.27943992614752	-556.1796875000001	830.4818115234377	-62.18586349487313	-945.3526611328127	1288.221557617188	272.8087158203124	-899.9883422851565	1418.946655273438	308.4513244628906	-860.648864746094	1418.265502929688	373.1470947265624	-821.7456665039065	1430.867431640625	381.7557678222656	-895.3826293945315	1108.297973632813	449.8918151855469	-924.8055419921877	1106.0576171875	377.6053161621093	-931.5629882812502	1086.108276367188	415.7599487304688	-815.3640747070315	863.561462402344	446.7351684570312	-877.0424804687503	871.4602050781252	484.6117248535156	-805.254821777344	767.2308349609376	463.8612976074219	-903.4627685546878	790.7073974609377	473.8726196289062	
46	0.45	-699.5043945312501	930.2954101562502	90.31446838378899	-905.630310058594	986.2895507812502	173.7647705078124	-907.3688964843752	967.0891723632815	268.9792480468749	-700.1625976562501	926.9431152343752	323.9207153320312	-789.967712402344	879.7176513671877	8.246141433715726	-831.310241699219	461.8316040039064	73.56664276123038	-870.6066894531252	458.3760681152345	205.6893920898437	-864.9345703125002	408.454559326172	68.95225524902335	-820.7110595703127	389.861297607422	125.9476013183593	-954.6427001953127	68.8149871826172	122.9890670776366	-929.0676879882815	95.58265686035158	212.4320373535156	-1002.396301269531	29.03800964355469	165.7403869628905	-821.342956542969	23.48579406738282	223.3783721923828	-794.433288574219	37.77642440795899	169.6634368896484	-829.3040771484377	20.04945755004883	108.9629745483398	-791.9216918945315	833.5798950195315	410.0669250488281	-602.9402465820314	473.2643127441407	348.8072814941406	-582.9815673828126	464.4105834960939	213.7979278564453	-617.7493896484376	415.8957519531251	351.7249145507812	-544.6024780273439	410.7854309082032	308.8068542480469	-586.4932250976564	75.74747467041017	322.9993591308594	-542.3510131835939	90.32824707031251	242.5244140625	-605.7985229492189	23.2965202331543	259.5543518066406	-414.6477661132814	49.16648101806642	292.0455932617188	-427.4180603027345	66.88887023925783	346.1602172851562	-475.6503295898439	42.84149932861329	382.6299133300781	-847.139831542969	1467.777099609375	207.5027313232421	-920.4810791015627	1255.262451171875	205.4391021728515	-696.9938354492189	1147.924072265625	216.8657989501953	-727.9397583007814	1376.628051757813	212.5465698242187	-919.4494628906252	1293.354370117188	119.6814575195312	-871.3442382812502	1417.062866210938	90.61528015136709	-830.2078857421877	1408.879760742188	28.5417709350585	-780.065368652344	1424.342407226563	26.24012756347647	-730.2247314453126	1092.703125	-42.92851638793955	-761.5297851562501	1080.341064453125	16.07852745056143	-746.8056030273439	1057.667724609375	-10.10803794860849	-520.7463989257814	943.0840454101565	-12.23459911346442	-566.0045166015626	916.5691528320315	-61.83774948120126	-454.1350402832032	880.6782226562502	-15.13222694396979	-531.8713989257814	835.0338134765627	-58.13500976562508	-932.800720214844	1286.206420898438	272.7765197753906	-887.561218261719	1417.017578125	308.2065734863281	-848.3323974609377	1416.462524414063	372.8668212890624	-809.586120605469	1429.050659179688	381.6834411621093	-886.0479125976565	1107.039672851563	448.7977294921875	-914.2544555664065	1104.848388671875	376.0761108398437	-921.7549438476565	1085.267578125	414.2068176269531	-809.392272949219	861.2673339843752	447.5545349121094	-871.5122680664066	870.044860839844	484.2337036132812	-800.6054687500003	764.9301147460939	465.2495422363281	-898.5825195312503	789.6123657226565	473.286376953125	
47	0.46	-688.0488281250001	928.348571777344	90.13811492919915	-893.6749267578127	984.5783691406252	175.0731201171874	-894.6672973632815	965.1894531250002	270.2115783691406	-687.1441040039064	924.8437500000002	323.8030395507812	-779.3131103515627	878.5058593750002	8.405585289001371	-825.6638183593752	460.8203430175782	73.53415679931632	-864.0388793945315	458.0038452148439	205.6262207031249	-859.6135864257815	408.0482177734376	68.87770843505851	-815.679870605469	388.6612854003907	125.7121963500976	-954.2029418945315	69.40292358398439	122.8748779296874	-928.7752685546877	95.76739501953126	212.3164367675781	-1002.146301269531	30.17379188537598	165.7190551757812	-821.3994140625002	23.59954452514649	223.3814849853515	-794.4299926757815	37.68747711181641	169.5766448974609	-829.402038574219	20.01079368591309	108.9184646606445	-779.3052368164065	831.6135864257815	410.4093322753906	-591.5395507812501	470.3669738769532	349.5553588867188	-572.4934692382814	461.5482788085939	213.931884765625	-603.1992187500001	412.6261596679689	352.3274536132812	-530.2447509765626	410.7925415039064	308.7347717285156	-550.6374511718751	74.23099517822267	322.6787414550781	-508.6477050781252	91.49245452880861	241.7720184326172	-567.7943115234376	20.77904891967774	259.15234375	-378.2996215820314	56.76955413818361	289.086181640625	-391.0834350585939	73.74108886718751	343.3597106933594	-437.1865539550783	47.10365676879884	380.4683532714844	-834.7793579101565	1465.892700195313	207.5934448242187	-908.0320434570315	1253.44189453125	206.0935974121093	-684.4320068359376	1145.701049804688	216.57373046875	-715.3930053710939	1374.65478515625	212.3030242919922	-907.195739746094	1291.453247070313	120.0115432739257	-859.2546997070315	1415.196655273438	90.75547790527335	-818.1676025390627	1407.072387695313	28.58687782287588	-768.0930175781252	1422.727661132813	26.33275794982902	-714.5987548828126	1091.469848632813	-42.36382675170908	-746.3432006835939	1078.803344726563	16.50365638732901	-730.8956909179689	1055.92138671875	-9.611550331115813	-501.1544494628907	948.569763183594	-9.021816253662173	-545.1250000000001	920.0534667968752	-58.71842956542977	-432.4369201660157	888.4856567382815	-10.98161411285406	-508.3148498535157	839.7219238281252	-54.00834274292	-920.1191406250002	1284.132080078125	272.9261779785156	-875.0035400390627	1415.031982421875	308.1150207519531	-835.8295898437502	1414.614135742188	372.7049255371093	-797.2386474609377	1427.189697265625	381.6918640136718	-876.4978637695315	1105.764038085938	447.7550659179688	-903.3964843750002	1103.623168945313	374.6042480468749	-911.697937011719	1084.388671875	412.6982727050781	-803.1829833984377	859.0239257812502	448.3739624023438	-865.6848144531253	868.6697998046877	483.8414611816406	-795.6537475585941	762.6899414062501	466.5718078613281	-893.3652954101566	788.5454711914065	472.6385803222656	
